PathFileType  4	(X/Y/Z) C:\Users\antoi\Documents\MyRepositories\mobilecap\ResultsAnalysis
DataRate	CameraRate	NumFrames	NumMarkers	Units	OrigDataRate	OrigDataStartFrame	OrigNumFrames
100.0	100.0	4	51	mm	100.0	113	128
Frame#	Time	r_knee			r_shank_antsup			r_ankle			r_calc			r_5meta			r_toe			L_knee			L_shank_antsup			L_ankle			L_calc			L_5meta			L_toe			r_sh2			r_sh3			r_sh4			L_sh2			L_sh3			r_thigh1			r_thigh2			r_thigh3			r_thigh4			r_thigh5			L_thigh1			L_thigh2			L_thigh3			L_thigh4			r.ASIS			r.PSIS			L.ASIS			L.PSIS			C7			R_Shoulder			L_Shoulder			R_Sternum			L_Sternum			R_humerus			R_elbow_med			R_elbow_lat			R_forearm			R_wrist_radius			R_wrist_ulna			L_humerus			L_elbow_med			L_elbow_lat			L_forearm			L_wrist_radius			L_wrist_ulna			R_HJC			L_HJC			R_HJC_reg			L_HJC_reg			
		X1	Y1	Z1	X2	Y2	Z2	X3	Y3	Z3	X4	Y4	Z4	X5	Y5	Z5	X6	Y6	Z6	X7	Y7	Z7	X8	Y8	Z8	X9	Y9	Z9	X10	Y10	Z10	X11	Y11	Z11	X12	Y12	Z12	X13	Y13	Z13	X14	Y14	Z14	X15	Y15	Z15	X16	Y16	Z16	X17	Y17	Z17	X18	Y18	Z18	X19	Y19	Z19	X20	Y20	Z20	X21	Y21	Z21	X22	Y22	Z22	X23	Y23	Z23	X24	Y24	Z24	X25	Y25	Z25	X26	Y26	Z26	X27	Y27	Z27	X28	Y28	Z28	X29	Y29	Z29	X30	Y30	Z30	X31	Y31	Z31	X32	Y32	Z32	X33	Y33	Z33	X34	Y34	Z34	X35	Y35	Z35	X36	Y36	Z36	X37	Y37	Z37	X38	Y38	Z38	X39	Y39	Z39	X40	Y40	Z40	X41	Y41	Z41	X42	Y42	Z42	X43	Y43	Z43	X44	Y44	Z44	X45	Y45	Z45	X46	Y46	Z46	X47	Y47	Z47	X48	Y48	Z48	X49	Y49	Z49	X50	Y50	Z50	X51	Y51	Z51	

113	1.12000000	1441.82554	496.75282	-38.31180	1491.88280	435.31530	-55.23834	1469.39166	92.58659	-54.66154	1405.60060	64.42606	-95.86388	1575.21512	42.39425	-22.68744	1625.48340	74.15648	-76.18235	1190.67456	465.93046	-356.89130	1158.14122	372.19232	-371.23753	905.41324	187.12446	-368.34068	829.46642	199.38617	-322.83888	932.55631	63.51290	-407.95635	983.73370	56.25100	-355.96132	1485.64345	320.94573	-30.53316	1413.11521	436.05551	-26.38078	1410.60762	322.99657	-24.02616	1098.90422	439.46638	-370.66633	1015.86149	350.74417	-383.60679	1387.61135	816.03783	-20.00381	1424.88947	707.99945	-22.27429	1379.49107	670.30331	8.69164	1282.70117	778.73781	2.24627	1323.27595	668.96019	-2.52554	1277.48630	721.02741	-391.70383	1259.44081	585.56156	-372.59414	1173.68737	737.26460	-342.67954	1159.09007	597.51317	-335.63057	1368.45571	950.49695	-73.57602	1177.72583	983.38551	-146.44369	1369.94725	911.12588	-322.82762	1170.84386	977.84423	-246.85419	1198.51132	1392.35920	-235.28215	1275.43313	1351.83977	-45.84257	1296.97985	1348.36206	-403.10110	1333.20412	1346.46413	-197.60286	1341.94648	1346.61483	-241.47114	1251.82030	1228.53884	29.88847	1173.66506	1019.31169	8.16081	1174.49560	1047.65545	77.17134	1279.26764	952.62488	111.65338	1357.32683	841.47989	130.18013	1330.67585	828.91328	150.23112	1340.56549	1238.45790	-456.71266	1333.34126	996.68320	-417.20415	1367.74902	1027.95265	-483.32322	1465.20874	971.65253	-448.12845	1570.01852	856.81153	-419.53909	1556.70483	843.27633	-448.97220	1291.30342	869.75348	-83.95406	1285.16613	845.14181	-288.86724	1301.60483	862.58360	-98.88235	1290.23364	853.42833	-264.78711	
114	1.13000000	1451.26542	497.18529	-36.11161	1500.05969	434.44677	-53.22366	1469.77578	92.43782	-54.65900	1405.75264	64.58015	-95.78222	1575.34832	42.10068	-22.36788	1625.84579	73.00896	-76.25789	1213.69316	463.64790	-355.10174	1179.03448	371.36873	-369.95198	920.71978	195.26713	-367.43650	847.84930	213.62844	-320.59434	937.79020	69.51750	-406.80357	988.94278	57.99345	-355.91892	1491.37748	320.09841	-29.38303	1421.33544	436.76645	-24.37457	1416.50372	323.81205	-22.58576	1122.10370	440.54933	-368.05058	1036.16353	354.83523	-381.31368	1400.68531	817.42643	-17.03981	1436.82610	709.02398	-19.26264	1391.06626	671.81383	11.71018	1295.60510	781.25373	5.46731	1334.67569	670.89257	0.56738	1293.84546	720.66642	-388.18418	1279.52857	584.61828	-370.13277	1189.88157	733.68887	-338.42044	1179.10334	593.57635	-332.56336	1381.62917	952.46623	-70.55426	1190.76326	984.93442	-144.00859	1382.80945	912.27078	-319.55945	1183.65823	978.58164	-244.37556	1211.76311	1393.54340	-230.53234	1289.90547	1351.55547	-41.77038	1309.34146	1350.36952	-399.18639	1346.62511	1347.19344	-193.75498	1355.04649	1347.64768	-237.63508	1267.74310	1227.50182	33.13275	1189.87620	1018.24013	10.53905	1191.54228	1045.93021	79.83442	1296.40416	950.61449	112.61675	1374.49435	839.26841	129.69090	1347.99185	826.55543	149.88173	1351.95051	1240.38262	-453.34374	1341.92128	998.45042	-415.17565	1376.49942	1029.60736	-481.22074	1473.18629	971.44560	-446.91956	1576.10869	854.65833	-419.32726	1562.67335	841.56476	-448.76890	1304.38680	871.65289	-80.75981	1298.38712	846.10769	-285.56009	1314.76055	865.06597	-95.07771	1303.02844	854.57579	-260.80520	
115	1.14000000	1459.81192	497.37715	-33.91645	1507.50536	433.45532	-51.00328	1469.98349	92.34269	-54.59132	1405.80359	64.69091	-95.69297	1575.39795	41.95741	-22.03390	1625.99524	72.15836	-76.27511	1237.37217	461.46015	-353.29987	1200.76074	370.65816	-368.53436	937.44803	203.50148	-366.34266	868.00250	227.67464	-318.11826	944.61781	76.45130	-405.45959	995.47486	60.73071	-355.69150	1496.36330	319.17421	-28.09428	1428.73386	437.31409	-22.50289	1421.66361	324.50319	-21.32041	1146.24994	441.71149	-365.25669	1057.55647	358.99590	-378.71292	1413.32379	818.47654	-13.86784	1448.09810	709.65380	-16.05766	1401.71669	673.02352	14.64647	1307.83304	783.57827	8.42190	1345.27656	672.65775	3.41082	1310.34400	720.29330	-384.88962	1300.01868	583.75735	-367.73367	1206.36054	729.99542	-334.36524	1199.55475	589.56476	-329.63624	1394.54744	954.43548	-67.51087	1203.57699	986.48299	-141.79683	1395.48182	913.50778	-316.28946	1196.23951	979.40789	-242.12327	1224.89065	1394.84180	-225.91290	1304.31263	1351.50254	-37.85078	1321.52615	1352.41220	-395.39371	1359.93019	1348.03769	-190.03873	1367.95249	1348.74703	-233.93773	1283.65661	1226.73739	36.27772	1206.29775	1017.37547	12.90229	1208.82009	1044.41474	82.48493	1313.89439	948.90535	113.42903	1392.09853	837.41462	128.92668	1365.80466	824.55581	149.31940	1363.07283	1242.30129	-450.09501	1350.20739	1000.25008	-413.25235	1384.99719	1031.29198	-479.19171	1480.85542	971.28220	-445.69033	1581.75519	852.48209	-419.10087	1568.21296	839.85978	-448.62383	1317.14751	873.56349	-77.68557	1311.44551	847.14812	-282.38067	1327.71186	867.49783	-91.32109	1315.60423	855.82270	-256.87320	
116	1.15000000	1467.47898	497.31999	-31.76843	1514.27947	432.35219	-48.68583	1470.10537	92.25728	-54.48236	1405.81076	64.78194	-95.60292	1575.40791	41.85529	-21.70580	1626.00501	71.46633	-76.23758	1261.45428	459.53646	-351.43489	1223.13224	370.17595	-366.90587	955.39792	211.75993	-364.97525	889.36988	241.08016	-315.46570	953.53660	84.15483	-403.87510	1003.85766	64.57052	-355.07842	1500.74053	318.18843	-26.68950	1435.41273	437.67864	-20.75493	1426.21444	325.05023	-20.17328	1171.12302	443.03361	-362.28199	1079.83237	363.26764	-375.80027	1425.44844	819.15222	-10.53133	1458.67735	709.87677	-12.73548	1411.40508	673.90591	17.41103	1319.34262	785.65390	11.05755	1355.09742	674.21578	5.94621	1326.88053	719.97810	-381.84057	1320.70010	583.07225	-365.39436	1223.04589	726.34759	-330.50775	1220.27863	585.69816	-326.78580	1407.21836	956.36388	-64.50703	1216.16121	987.99128	-139.77129	1407.95805	914.77402	-313.09006	1208.59334	980.26320	-240.06911	1237.87443	1396.21211	-221.43867	1318.65058	1351.64191	-34.10258	1333.51230	1354.48620	-391.73511	1373.10762	1348.96172	-186.47739	1380.66084	1349.88070	-230.40181	1299.53512	1226.22809	39.31143	1222.90238	1016.69153	15.27224	1226.29308	1043.10755	85.12621	1331.71599	947.50647	114.09930	1410.12072	835.92933	127.89943	1384.09818	822.92893	148.55181	1373.93047	1244.20449	-446.98671	1358.22499	1002.08246	-411.41011	1393.21833	1032.97538	-477.24491	1488.21985	971.16690	-444.41781	1586.98371	850.30410	-418.85418	1573.34550	838.19045	-448.57032	1329.62054	875.43741	-74.75015	1324.31744	848.20897	-279.34713	1340.44516	869.84343	-87.66833	1327.96638	857.10029	-253.05740	
